<svg width="123" height="50" viewBox="0 0 123 50" fill="none" xmlns="http://www.w3.org/2000/svg">
<path d="M72.129 37.98L69.555 31.142C69.347 30.6133 69.1347 29.9417 68.918 29.127C68.8227 29.5343 68.7187 29.9113 68.606 30.258C68.4933 30.596 68.3893 30.895 68.294 31.155L65.72 37.98H72.129ZM77.888 45H75.535C75.2663 45 75.0497 44.935 74.885 44.805C74.7203 44.6663 74.5947 44.4973 74.508 44.298L72.948 40.164H64.888L63.328 44.298C63.2587 44.4713 63.1373 44.6317 62.964 44.779C62.7907 44.9263 62.574 45 62.314 45H59.961L67.384 26.28H70.465L77.888 45ZM79.5018 45V31.74H81.1918C81.5732 31.74 81.8158 31.9177 81.9198 32.273L82.1018 33.43C82.3445 33.1527 82.5958 32.9013 82.8558 32.676C83.1158 32.442 83.3932 32.2427 83.6878 32.078C83.9912 31.9047 84.3118 31.7703 84.6498 31.675C84.9965 31.5797 85.3692 31.532 85.7678 31.532C86.1925 31.532 86.5825 31.5927 86.9378 31.714C87.2932 31.8353 87.6052 32.0087 87.8738 32.234C88.1512 32.4593 88.3895 32.7323 88.5888 33.053C88.7882 33.3737 88.9528 33.7333 89.0828 34.132C89.2822 33.6727 89.5335 33.2783 89.8368 32.949C90.1402 32.6197 90.4782 32.351 90.8508 32.143C91.2235 31.935 91.6178 31.7833 92.0338 31.688C92.4585 31.584 92.8875 31.532 93.3208 31.532C94.0315 31.532 94.6642 31.6447 95.2188 31.87C95.7822 32.0953 96.2545 32.4247 96.6358 32.858C97.0258 33.2827 97.3205 33.807 97.5198 34.431C97.7192 35.055 97.8188 35.7657 97.8188 36.563V45H95.0238V36.563C95.0238 35.627 94.8202 34.925 94.4128 34.457C94.0142 33.9803 93.4205 33.742 92.6318 33.742C92.2765 33.742 91.9428 33.8027 91.6308 33.924C91.3188 34.0453 91.0458 34.223 90.8118 34.457C90.5778 34.691 90.3915 34.9857 90.2528 35.341C90.1228 35.6877 90.0578 36.095 90.0578 36.563V45H87.2628V36.563C87.2628 35.5923 87.0678 34.8817 86.6778 34.431C86.2878 33.9717 85.7158 33.742 84.9618 33.742C84.4418 33.742 83.9608 33.8763 83.5188 34.145C83.0768 34.405 82.6695 34.7647 82.2968 35.224V45H79.5018ZM109.781 36.875C109.781 36.407 109.712 35.9737 109.573 35.575C109.443 35.1677 109.248 34.8167 108.988 34.522C108.728 34.2187 108.403 33.9847 108.013 33.82C107.632 33.6467 107.19 33.56 106.687 33.56C105.673 33.56 104.876 33.8503 104.295 34.431C103.714 35.0117 103.346 35.8263 103.19 36.875H109.781ZM103.112 38.591C103.147 39.345 103.264 39.9993 103.463 40.554C103.662 41.1 103.927 41.555 104.256 41.919C104.594 42.283 104.993 42.556 105.452 42.738C105.92 42.9113 106.44 42.998 107.012 42.998C107.558 42.998 108.03 42.9373 108.429 42.816C108.828 42.686 109.174 42.5473 109.469 42.4C109.764 42.244 110.015 42.1053 110.223 41.984C110.431 41.854 110.622 41.789 110.795 41.789C111.02 41.789 111.194 41.8757 111.315 42.049L112.108 43.076C111.779 43.466 111.406 43.7953 110.99 44.064C110.574 44.3327 110.132 44.5537 109.664 44.727C109.196 44.8917 108.715 45.0087 108.221 45.078C107.727 45.156 107.246 45.195 106.778 45.195C105.859 45.195 105.006 45.0433 104.217 44.74C103.437 44.428 102.757 43.973 102.176 43.375C101.604 42.777 101.153 42.036 100.824 41.152C100.503 40.268 100.343 39.2497 100.343 38.097C100.343 37.1783 100.486 36.3203 100.772 35.523C101.067 34.7257 101.483 34.0323 102.02 33.443C102.566 32.8537 103.225 32.39 103.996 32.052C104.776 31.7053 105.656 31.532 106.635 31.532C107.45 31.532 108.204 31.6663 108.897 31.935C109.59 32.195 110.188 32.5807 110.691 33.092C111.194 33.6033 111.584 34.2317 111.861 34.977C112.147 35.7137 112.29 36.5543 112.29 37.499C112.29 37.9323 112.242 38.2227 112.147 38.37C112.052 38.5173 111.878 38.591 111.627 38.591H103.112ZM119.02 45.208C117.92 45.208 117.07 44.9003 116.472 44.285C115.883 43.661 115.588 42.7857 115.588 41.659V33.937H114.132C113.976 33.937 113.842 33.8893 113.729 33.794C113.617 33.69 113.56 33.5383 113.56 33.339V32.208L115.705 31.896L116.316 28.061C116.36 27.9137 116.433 27.7967 116.537 27.71C116.641 27.6147 116.78 27.567 116.953 27.567H118.383V31.922H122.062V33.937H118.383V41.464C118.383 41.9407 118.5 42.3047 118.734 42.556C118.968 42.8073 119.28 42.933 119.67 42.933C119.887 42.933 120.073 42.907 120.229 42.855C120.385 42.7943 120.52 42.7337 120.632 42.673C120.745 42.6037 120.84 42.543 120.918 42.491C121.005 42.4303 121.087 42.4 121.165 42.4C121.321 42.4 121.447 42.4867 121.542 42.66L122.374 44.025C121.941 44.4063 121.43 44.701 120.84 44.909C120.251 45.1083 119.644 45.208 119.02 45.208Z" fill="white"/>
<path d="M2.34375 20.3125H3.17881L4.68955 41.4619C4.70363 41.6589 4.79183 41.8433 4.93641 41.978C5.08098 42.1126 5.2712 42.1875 5.46875 42.1875H14.0625V46.0937C14.0632 46.7151 14.3104 47.3108 14.7498 47.7502C15.1891 48.1896 15.7849 48.4368 16.4062 48.4375H29.6875C29.8326 48.4375 29.9748 48.3971 30.0982 48.3208C30.2216 48.2445 30.3213 48.1354 30.3862 48.0056L31.25 46.2782L32.1138 48.0056C32.1787 48.1354 32.2784 48.2445 32.4018 48.3208C32.5252 48.3971 32.6674 48.4375 32.8125 48.4375H46.0938C46.7151 48.4368 47.3109 48.1896 47.7502 47.7502C48.1896 47.3108 48.4368 46.7151 48.4375 46.0937V36.7187C48.4368 36.0973 48.1896 35.5016 47.7502 35.0622C47.3109 34.6229 46.7151 34.3757 46.0938 34.375H34.8304L35.7374 20.3125H36.7188C36.926 20.3125 37.1247 20.2302 37.2712 20.0837C37.4177 19.9371 37.5 19.7384 37.5 19.5312V17.9687C37.4994 17.4842 37.3489 17.0118 37.0691 16.6163C36.7894 16.2207 36.3941 15.9214 35.9375 15.7594V14.5661C36.2909 14.1652 36.5356 13.6804 36.6482 13.158C36.7608 12.6356 36.7376 12.0931 36.5807 11.5822C36.4238 11.0713 36.1386 10.6092 35.7522 10.2401C35.3658 9.87088 34.8912 9.60696 34.3737 9.47351C34.3746 9.4407 34.375 9.40785 34.375 9.37498C34.3748 8.55027 34.1136 7.74678 33.6287 7.07963C33.1439 6.41247 32.4604 5.91588 31.6761 5.66099C30.8917 5.4061 30.0468 5.40598 29.2624 5.66067C28.478 5.91535 27.7944 6.41176 27.3094 7.07878C26.7926 6.56297 26.1784 6.15501 25.5025 5.87861C24.8267 5.60222 24.1026 5.46289 23.3725 5.46873C23.2082 4.4985 22.7428 3.60454 22.0423 2.91343C21.3419 2.22231 20.4417 1.76905 19.4694 1.61784C18.497 1.46662 17.5017 1.62511 16.6245 2.07086C15.7472 2.51661 15.0323 3.22703 14.5812 4.10154C13.9344 3.60223 13.1684 3.28069 12.359 3.16881C11.5496 3.05694 10.7251 3.15861 9.96715 3.46375C9.20921 3.76889 8.54422 4.26689 8.03815 4.90835C7.53207 5.54981 7.2025 6.31244 7.08213 7.12058C6.21098 6.9303 5.30095 7.04385 4.50327 7.44235C3.70559 7.84085 3.06828 8.50032 2.69727 9.31115C2.32625 10.122 2.24387 11.0354 2.4638 11.8995C2.68374 12.7636 3.19275 13.5265 3.90625 14.0613V15.625C3.28487 15.6257 2.68915 15.8729 2.24977 16.3122C1.81039 16.7516 1.56322 17.3473 1.5625 17.9687V19.5312C1.5625 19.7384 1.64481 19.9371 1.79132 20.0837C1.93784 20.2302 2.13655 20.3125 2.34375 20.3125ZM4.74531 20.3125H9.375V40.625H6.19619L4.74531 20.3125ZM10.9375 40.625V20.3125H15.625V34.5094C15.1684 34.6714 14.7731 34.9707 14.4934 35.3663C14.2136 35.7618 14.0631 36.2342 14.0625 36.7187V40.625H10.9375ZM23.4375 34.375V20.3125H28.125V34.375H23.4375ZM21.875 34.375H17.1875V20.3125H21.875V34.375ZM46.875 36.7187V46.0937C46.8748 46.3009 46.7924 46.4994 46.6459 46.6459C46.4995 46.7924 46.3009 46.8747 46.0938 46.875H33.2953L31.9487 44.1818C31.8838 44.0521 31.7841 43.9429 31.6607 43.8667C31.5373 43.7904 31.3951 43.75 31.25 43.75C31.1049 43.75 30.9627 43.7904 30.8393 43.8667C30.7159 43.9429 30.6162 44.0521 30.5513 44.1818L29.2047 46.875H16.4062C16.1991 46.8747 16.0005 46.7924 15.8541 46.6459C15.7076 46.4994 15.6252 46.3009 15.625 46.0937V36.7187C15.6252 36.5116 15.7076 36.313 15.8541 36.1666C16.0005 36.0201 16.1991 35.9377 16.4062 35.9375H29.2047L30.5513 38.6306C30.6162 38.7604 30.7159 38.8695 30.8393 38.9458C30.9627 39.022 31.1049 39.0624 31.25 39.0624C31.3951 39.0624 31.5373 39.022 31.6607 38.9458C31.7841 38.8695 31.8838 38.7604 31.9487 38.6306L33.2953 35.9375H46.0938C46.3009 35.9377 46.4995 36.0201 46.6459 36.1666C46.7924 36.313 46.8748 36.5116 46.875 36.7187V36.7187ZM33.2646 34.375H32.8125C32.6674 34.375 32.5252 34.4154 32.4018 34.4917C32.2784 34.5679 32.1787 34.6771 32.1138 34.8068L31.25 36.5343L30.3862 34.8068C30.3213 34.6771 30.2216 34.5679 30.0982 34.4917C29.9748 34.4154 29.8326 34.375 29.6875 34.375V20.3125H34.1716L33.2646 34.375ZM5.0793 12.9676C4.80826 12.8153 4.57022 12.6106 4.37904 12.3655C4.18786 12.1203 4.04736 11.8396 3.96573 11.5396C3.8841 11.2396 3.86296 10.9264 3.90354 10.6182C3.94413 10.31 4.04563 10.0129 4.20213 9.74429C4.35863 9.47567 4.56701 9.24088 4.81514 9.05357C5.06326 8.86627 5.34617 8.7302 5.64738 8.65328C5.9486 8.57637 6.26211 8.56015 6.56966 8.60557C6.87721 8.65099 7.17264 8.75714 7.43877 8.91785C7.56369 8.99158 7.70668 9.02907 7.85171 9.02613C7.99674 9.02319 8.13809 8.97993 8.25992 8.90119C8.38175 8.82245 8.47926 8.71135 8.54151 8.58033C8.60377 8.4493 8.62831 8.30354 8.6124 8.15935C8.59987 8.04415 8.59365 7.92835 8.59375 7.81248C8.5938 7.14932 8.80481 6.50337 9.19626 5.96807C9.58771 5.43278 10.1393 5.03589 10.7712 4.83482C11.4032 4.63375 12.0827 4.63892 12.7115 4.8496C13.3403 5.06027 13.8858 5.46552 14.269 6.00671C14.3581 6.13227 14.4822 6.22873 14.6259 6.28397C14.7696 6.33921 14.9264 6.35077 15.0766 6.31721C15.2269 6.28365 15.3638 6.20646 15.4703 6.09532C15.5768 5.98419 15.6481 5.84407 15.6753 5.69255C15.8147 4.92492 16.2362 4.2372 16.857 3.76458C17.4777 3.29196 18.2528 3.06863 19.0298 3.1385C19.8069 3.20837 20.5297 3.56637 21.0562 4.14214C21.5827 4.71791 21.8748 5.46979 21.875 6.24998C21.875 6.25974 21.875 6.26951 21.875 6.27986C21.8698 6.39625 21.8908 6.51232 21.9363 6.61957C21.9818 6.72682 22.0507 6.82254 22.138 6.89972C22.2252 6.97689 22.3287 7.03357 22.4407 7.0656C22.5527 7.09763 22.6705 7.10421 22.7854 7.08484C23.0009 7.04891 23.219 7.03097 23.4375 7.03123C24.1132 7.02828 24.778 7.20204 25.3659 7.53528C25.9538 7.86851 26.4443 8.34963 26.7889 8.93093C26.8673 9.06185 26.9824 9.16692 27.1199 9.23315C27.2575 9.29939 27.4114 9.32389 27.5627 9.30364C27.7139 9.28338 27.856 9.21925 27.9712 9.11918C28.0865 9.0191 28.1699 8.88745 28.2111 8.7405C28.3645 8.19548 28.71 7.72439 29.1837 7.41424C29.6574 7.10409 30.2273 6.97584 30.7882 7.05318C31.3491 7.13052 31.8631 7.40822 32.2352 7.835C32.6072 8.26177 32.8123 8.80877 32.8125 9.37498C32.8129 9.57265 32.788 9.76957 32.7384 9.96091C32.7076 10.0784 32.7047 10.2014 32.7298 10.3203C32.7549 10.4391 32.8074 10.5504 32.883 10.6454C32.9587 10.7404 33.0554 10.8165 33.1656 10.8675C33.2758 10.9186 33.3964 10.9433 33.5178 10.9396C33.5431 10.9388 33.5684 10.938 33.5938 10.938C33.9101 10.9378 34.2191 11.0338 34.4797 11.2132C34.7404 11.3925 34.9404 11.6468 35.0534 11.9423C35.1663 12.2379 35.1868 12.5607 35.1122 12.8682C35.0376 13.1757 34.8714 13.4532 34.6355 13.6641C34.5536 13.7374 34.4881 13.827 34.4432 13.9273C34.3983 14.0276 34.3751 14.1362 34.375 14.2461V15.625H5.46875V13.6435C5.46876 13.5066 5.43279 13.3721 5.36444 13.2535C5.29609 13.1348 5.19775 13.0362 5.0793 12.9676V12.9676ZM3.125 17.9687C3.12523 17.7616 3.20762 17.563 3.35408 17.4166C3.50054 17.2701 3.69912 17.1877 3.90625 17.1875H35.1562C35.3634 17.1877 35.562 17.2701 35.7084 17.4166C35.8549 17.563 35.9373 17.7616 35.9375 17.9687V18.75H3.125V17.9687Z" fill="#F22C46"/>
<path d="M27.3438 37.5H17.9688C17.7615 37.5 17.5628 37.5823 17.4163 37.7288C17.2698 37.8753 17.1875 38.074 17.1875 38.2812V44.5312C17.1875 44.7385 17.2698 44.9372 17.4163 45.0837C17.5628 45.2302 17.7615 45.3125 17.9688 45.3125H27.3438C27.551 45.3125 27.7497 45.2302 27.8962 45.0837C28.0427 44.9372 28.125 44.7385 28.125 44.5312V38.2812C28.125 38.074 28.0427 37.8753 27.8962 37.7288C27.7497 37.5823 27.551 37.5 27.3438 37.5ZM26.5625 43.75H18.75V39.0625H26.5625V43.75Z" fill="#F22C46"/>
<path d="M35.1562 45.3125H44.5312C44.7385 45.3125 44.9372 45.2302 45.0837 45.0837C45.2302 44.9372 45.3125 44.7385 45.3125 44.5312V38.2812C45.3125 38.074 45.2302 37.8753 45.0837 37.7288C44.9372 37.5823 44.7385 37.5 44.5312 37.5H35.1562C34.949 37.5 34.7503 37.5823 34.6038 37.7288C34.4573 37.8753 34.375 38.074 34.375 38.2812V44.5312C34.375 44.7385 34.4573 44.9372 34.6038 45.0837C34.7503 45.2302 34.949 45.3125 35.1562 45.3125ZM35.9375 39.0625H43.75V43.75H35.9375V39.0625Z" fill="#F22C46"/>
<path d="M21.875 13.2812C22.7035 13.2803 23.4978 12.9508 24.0837 12.3649C24.6695 11.7791 24.9991 10.9848 25 10.1562C25 9.94905 24.9177 9.75034 24.7712 9.60382C24.6247 9.45731 24.426 9.375 24.2188 9.375C24.0115 9.375 23.8128 9.45731 23.6663 9.60382C23.5198 9.75034 23.4375 9.94905 23.4375 10.1562C23.4375 10.5707 23.2729 10.9681 22.9799 11.2611C22.6868 11.5541 22.2894 11.7188 21.875 11.7188C21.4606 11.7188 21.0632 11.5541 20.7701 11.2611C20.4771 10.9681 20.3125 10.5707 20.3125 10.1562C20.3125 9.94905 20.2302 9.75034 20.0837 9.60382C19.9372 9.45731 19.7385 9.375 19.5312 9.375C19.324 9.375 19.1253 9.45731 18.9788 9.60382C18.8323 9.75034 18.75 9.94905 18.75 10.1562C18.7509 10.9848 19.0805 11.7791 19.6663 12.3649C20.2522 12.9508 21.0465 13.2803 21.875 13.2812Z" fill="#F22C46"/>
<path d="M12.5 12.5C12.2928 12.5 12.0941 12.5823 11.9476 12.7288C11.8011 12.8753 11.7188 13.074 11.7188 13.2812C11.7188 13.4885 11.8011 13.6872 11.9476 13.8337C12.0941 13.9802 12.2928 14.0625 12.5 14.0625C13.3288 14.0625 14.1237 13.7333 14.7097 13.1472C15.2958 12.5612 15.625 11.7663 15.625 10.9375C15.625 10.1087 15.2958 9.31384 14.7097 8.72779C14.1237 8.14174 13.3288 7.8125 12.5 7.8125C12.2928 7.8125 12.0941 7.89481 11.9476 8.04132C11.8011 8.18784 11.7188 8.38655 11.7188 8.59375C11.7188 8.80095 11.8011 8.99966 11.9476 9.14618C12.0941 9.29269 12.2928 9.375 12.5 9.375C12.9144 9.375 13.3118 9.53962 13.6049 9.83265C13.8979 10.1257 14.0625 10.5231 14.0625 10.9375C14.0625 11.3519 13.8979 11.7493 13.6049 12.0424C13.3118 12.3354 12.9144 12.5 12.5 12.5V12.5Z" fill="#F22C46"/>
</svg>
